<?xml version="1.0" standalone="no"?>
<!DOCTYPE svg PUBLIC "-//W3C//DTD SVG 20010904//EN"
 "http://www.w3.org/TR/2001/REC-SVG-20010904/DTD/svg10.dtd">
<svg version="1.0" xmlns="http://www.w3.org/2000/svg"
 width="288.000000pt" height="84.000000pt" viewBox="0 0 288.000000 84.000000"
 preserveAspectRatio="xMidYMid meet">

<g transform="translate(0.000000,84.000000) scale(0.100000,-0.100000)"
fill="#000000" stroke="none">
<path d="M1500 681 c-139 -49 -183 -207 -93 -329 32 -43 94 -73 162 -79 178
-16 307 123 257 275 -10 28 -26 62 -38 77 -52 67 -185 93 -288 56z m168 -119
c27 -17 36 -50 28 -95 -9 -47 -26 -67 -66 -76 -75 -16 -130 21 -130 89 0 87
91 132 168 82z"/>
<path d="M2415 685 c-22 -8 -56 -32 -76 -54 -98 -110 -68 -281 61 -338 38 -17
195 -24 241 -11 30 9 49 45 49 95 0 32 -2 35 -22 28 -124 -39 -132 -40 -180
-16 -100 48 -88 177 18 197 32 6 121 -6 157 -21 15 -6 17 0 17 53 l0 60 -75
11 c-98 14 -141 13 -190 -4z"/>
<path d="M158 673 l-28 -14 0 -190 0 -189 65 0 65 0 0 108 1 107 102 -106
c107 -112 135 -128 197 -114 l30 7 0 204 0 204 -70 0 -70 0 0 -102 -1 -103
-98 103 c-88 92 -101 102 -132 101 -19 -1 -46 -8 -61 -16z"/>
<path d="M700 501 c0 -104 -4 -201 -9 -214 -6 -14 -23 -29 -41 -36 -22 -7 -30
-16 -27 -25 3 -8 9 -31 13 -52 l7 -37 52 6 c71 7 93 21 116 70 16 37 19 68 19
260 l0 217 -65 0 -65 0 0 -189z"/>
<path d="M930 480 l0 -211 63 3 62 3 3 83 c2 56 7 82 15 82 22 -1 57 -38 90
-96 21 -39 41 -61 57 -65 33 -9 120 -11 120 -3 0 4 -20 44 -45 90 -43 79 -54
114 -37 114 14 0 32 48 32 86 0 19 -7 49 -16 65 -24 48 -65 59 -214 59 l-130
0 0 -210z m210 110 c27 -27 26 -33 -19 -58 -55 -31 -61 -29 -61 28 0 49 1 50
30 50 17 0 39 -9 50 -20z"/>
<path d="M1840 640 l0 -49 78 -3 77 -3 0 -153 0 -152 61 0 c47 0 63 4 68 16 3
9 6 73 6 143 0 85 4 131 12 139 7 7 39 12 75 12 l63 0 0 50 0 50 -220 0 -220
0 0 -50z"/>
</g>
</svg>
