<?xml version="1.0" encoding="UTF-8"?>
<svg version="1.1" viewBox="0 0 4096 920" width="1024" height="230" xmlns="http://www.w3.org/2000/svg">
<path transform="translate(1879,192)" d="m0 0h47l8 7 13 15 12 14 26 30 9 10 7 8 24 28 26 30 9 10 7 8 11 13 12 14 9 10 9 11 13 14 9 11 10 11 9 11 11 12 7 8 9 10 1 1 1-281 2-4 6-1h53l8 1 1 2v402l-1 2-6 2h-53l-5-5-12-13-9-11-9-10-9-11-11-12-9-11-11-12-9-11-11-12-9-11-10-11-9-11-11-12-9-11-10-11-9-11-10-11-9-11-10-11-9-11-12-13-9-11-10-11-14-16-4-2v278l-1 3-5 2h-58l-5-2-1-4v-398l3-4z"/>
<path transform="translate(2953,187)" d="m0 0h34l24 2 25 5 27 9 17 8 17 10 16 12 10 9 8 7 8 8 9 11 11 15 9 15 9 19 6 18 5 23 2 16 1 16v16l-2 22-3 18-7 24-7 16-9 17-8 12-11 14-2 3h-2l-2 4-16 16-14 11-18 12-23 12-19 7-28 7-18 3-12 1h-45l-18-2-23-5-22-7-20-9-17-10-16-12-15-14-10-10-9-11-11-15-8-13-10-22-6-19-5-22-2-16v-41l3-22 5-21 7-20 12-25 10-15 13-16 7-8 6-5 5-5 10-9 17-12 18-10 18-8 18-6 22-5 16-2zm1 72-24 4-17 5-16 8-11 7-17 13-8 8-10 13-10 17-8 21-4 21-1 9v24l3 21 6 20 8 17 10 14 11 13 7 7 13 10 13 8 16 7 17 5 16 3 10 1h27l17-2 19-5 19-8 16-9 16-13 12-12 13-18 8-16 6-16 4-22v-35l-3-18-5-16-8-17-8-12-8-10-14-14-14-10-14-8-16-7-11-4-22-4z"/>
<path transform="translate(2467,192)" d="m0 0h105l21 1 26 5 17 6 16 9 14 10 7 6 7 8 6 8 8 14 6 15 3 15 1 9v25l-3 18-7 19-8 14-7 9-5 6-11 9-14 9-2 1 11 10 5 5 12 13 14 19 20 30 24 38 14 22 28 38 4 8-1 5-4 4-4 1h-70l-5-5-18-27-11-16-12-19-17-28-14-21-8-10-18-20-8-8-11-8-8-4-15-3-22-1v165l-1 3-10 2h-55l-6-2-1-3v-400l2-3zm66 66v105l36-1 14-1 16-4 10-5 8-7 7-10 4-13 1-6v-12l-4-16-6-10-8-8-13-6-18-4-8-1-25-1z"/>
<path transform="translate(3735,188)" d="m0 0h35l19 1 28 5 27 7 36 12 18 8 3 3v68l-1 3-4 2h-6l-29-14-23-9-18-6-24-5-21-3h-37l-23 4-15 5-16 7-16 10-13 10-10 10-10 13-10 17-6 15-5 19-2 19v18l2 18 5 19 6 15 9 16 11 14 9 10 13 10 15 9 18 8 12 4 15 3 9 1h29l23-2 25-5 21-6 23-9 22-12 15-8h6l4 3 1 4v69l-9 6-19 9-24 9-23 6-27 5-25 2h-43l-16-1-31-6-19-6-13-5-16-8-14-8-13-10-14-12-10-10-11-14-9-13-9-15-9-20-7-20-6-25-2-13-1-12v-19l2-21 5-24 6-19 9-21 9-16 8-12 13-16 17-17 14-11 17-12 18-10 16-7 18-6 17-4 17-3z"/>
<path transform="translate(200,191)" d="m0 0h124l29 2 19 5 21 9 14 9 13 11 8 9 9 13 7 14 5 16 3 19v28l-3 17-5 16-9 17-9 12-11 12-13 10-16 8-19 6-21 4-24 3h-60v165l-1 3-5 2h-61l-5-1-2-6v-399l3-3zm62 68v103h72l13-4 13-7 8-8 6-12 2-7 1-16-2-15-5-12-8-9-10-6-11-4-20-3z"/>
<path transform="translate(3185,191)" d="m0 0h322l7 2 1 4v36l-1 23-2 2-4 1h-129v290l-1 49-7 3h-60l-5-2-1-3-1-336-127-1-4-1-2-3v-60l1-2z"/>
<path transform="translate(1300,321)" d="m0 0h30l22 4 14 5 15 8 10 8 11 10 8 10 10 16 7 16 5 16 4 24 1 29-2 8-5 2-173 1 5 17 7 14 7 9 12 9 10 5 19 5 14 1 23-2 18-4 15-6 16-8 15-9 9-1 5 4v60l-10 7-14 8-25 10-14 4-17 3-18 1h-16l-22-1-10-2-24-8-11-6-12-9-12-11-11-13-12-19-7-17-6-19-4-26v-23l3-23 4-17 6-16 8-16 10-14 11-12 12-10 15-9 19-8zm8 62-16 4-11 6-10 10-9 16-3 9h106l3-2-4-13-7-13-9-8-10-5-15-4z"/>
<path transform="translate(2328,192)" d="m0 0h48l11 1 1 2v415l-2 25-3 17-5 16-8 16-7 10-11 12-11 8-14 8-16 6-13 3-10 1h-27l-9-1-4-4-7-30-4-21v-11l4-4 30-1 19-4 9-5 7-8 4-10 2-10 1-11 1-344 1-73 3-2z"/>
<path transform="translate(538,321)" d="m0 0h30l24 4 16 6 16 10 13 13 9 14 5 11 3 10 1 10 1 49v101l7-1 11-6 7-5h7l5 5 1 37-4 6-14 9-18 8-12 3-16 1-11-1-10-4-9-6-7-8-3-1-15 8-11 5-16 4-6 1h-26l-13-3-16-8-9-7-9-9-8-14-4-12-1-5v-22l4-16 7-14 9-11 10-10 15-10 21-10 34-12 29-10 2-1v-12l-2-11-4-8-5-5-6-4-12-3h-13l-15 3-13 5-14 8-13 10-9 9-10 8-6-2-4-3-1-20v-42l2-5 10-10 12-9 14-8 17-6zm47 158-17 6-20 9-14 9-7 8-3 8v13l5 10 6 5 11 4h14l11-3 10-5 6-4 1-2v-58z"/>
<path transform="translate(956,192)" d="m0 0h51l8 1 2 2 1 14v374l-1 15-6 3h-51l-8-1-2-2-1-9v-392l1-3z"/>
<path transform="translate(1603,321)" d="m0 0h22l15 4 16 8 19 14 7 6 2 6-5 10-14 23-11 17-6 5-14-10-13-9-11-5-7-2h-13l-9 3-8 6-9 9-9 15-6 15-2 14-1 146-1 3-6 2h-56l-4-2-2-5v-263l5-5 2-1h56l5 3 1 4v30l8-7 11-12 9-8 13-8 12-5z"/>
<path transform="translate(851,321)" d="m0 0h21l15 4 16 8 17 12 10 9 1 6-12 21-16 26-6 7-8-4-14-11-12-7-12-4h-14l-10 4-10 8-9 11-10 19-3 14-1 19-1 135-7 3h-55l-5-3-1-2v-266l2-3 5-2h55l5 2 1 3v32l4-1v-2l22-22 15-10 13-5z"/>
<path transform="translate(1084,325)" d="m0 0h51l7 3 1 2v267l-1 2-7 2h-52l-6-2-2-3-1-18v-197l1-51 6-4z"/>
<path transform="translate(1100,218)" d="m0 0h18l9 3 10 7 7 10 3 8 1 4v15l-4 10-9 10-9 6-10 4-8 1-11-2-8-4-9-8-7-11-2-6v-17l4-11 7-9 8-6z"/>
</svg>
