<svg version="1.1" id="Layer_1" xmlns="http://www.w3.org/2000/svg" xmlns:xlink="http://www.w3.org/1999/xlink" x="0px" y="0px"
	 width="100%" viewBox="0 0 490 84" enable-background="new 0 0 490 84" xml:space="preserve">
<path fill="none" opacity="1.000000" stroke="none" 
	d="
M465.000000,85.000000 
	C310.000031,85.000000 155.500031,85.000000 1.000041,85.000000 
	C1.000028,57.000023 1.000028,29.000044 1.000014,1.000049 
	C164.333298,1.000033 327.666595,1.000033 490.999908,1.000016 
	C490.999939,28.999954 490.999939,56.999908 490.999969,84.999931 
	C482.500000,85.000000 474.000000,85.000000 465.000000,85.000000 
M277.311462,46.500732 
	C277.311462,40.723644 277.311462,34.946560 277.311462,29.181835 
	C272.665497,29.181835 268.488861,29.181835 263.764221,29.181835 
	C263.764221,36.068470 263.764221,42.532619 263.764221,49.679295 
	C258.589386,44.153526 253.482925,39.697208 249.635757,34.337063 
	C244.969894,27.836283 239.080902,28.289396 232.520874,29.133808 
	C232.520874,42.838177 232.520874,56.233467 232.520874,69.773697 
	C236.867172,69.773697 240.940491,69.773697 245.519653,69.773697 
	C245.519653,63.010845 245.519653,56.469330 245.519653,48.608479 
	C250.905014,54.355305 255.952271,58.744377 259.738892,64.035629 
	C264.423187,70.581276 270.307709,70.834755 277.311493,69.525398 
	C277.311493,62.114075 277.311493,54.807213 277.311462,46.500732 
M361.866974,66.806824 
	C367.825134,70.305275 374.158051,71.058159 380.987854,70.148964 
	C395.981842,68.152946 404.179993,53.432999 397.660583,39.769600 
	C393.351440,30.738485 383.063293,26.601372 370.708405,28.691523 
	C361.561096,30.239027 355.273865,35.303371 353.386139,44.263916 
	C351.577179,52.850327 353.497986,60.832527 361.866974,66.806824 
M320.253235,70.010330 
	C322.783936,70.378357 323.854980,69.456879 323.718750,66.742867 
	C323.519623,62.776314 323.667542,58.792336 323.667542,52.984634 
	C326.836609,55.289848 329.411285,56.411140 330.823578,58.370335 
	C332.823425,61.144623 333.832245,64.613152 335.547852,67.623566 
	C336.142059,68.666214 337.536743,69.818558 338.641968,69.901146 
	C342.404510,70.182304 346.200989,70.008682 351.125427,70.008682 
	C347.697449,63.320290 344.662933,57.399574 341.501312,51.230934 
	C346.048370,48.696774 347.013000,44.009144 345.975464,38.752502 
	C344.977936,33.698563 341.491180,29.842262 336.750793,29.409069 
	C328.084320,28.617096 319.293671,29.183714 310.558350,29.183714 
	C310.558350,42.924110 310.558350,56.333168 310.558350,70.010399 
	C313.685120,70.010399 316.504456,70.010399 320.253235,70.010330 
M458.711945,55.544281 
	C454.681610,48.490284 457.007904,41.284714 464.692719,39.548836 
	C468.617828,38.662212 473.084808,39.851490 477.247131,40.491119 
	C479.004333,40.761150 480.607574,42.032928 482.656616,43.032745 
	C482.656616,38.546658 482.656616,34.936440 482.656616,30.522219 
	C476.506683,29.699823 470.461151,28.175753 464.431976,28.237808 
	C452.770081,28.357841 444.449799,35.720295 443.143433,45.965336 
	C441.701599,57.272686 447.261414,66.705284 457.778015,69.362923 
	C462.319885,70.510689 467.343842,70.576500 472.044800,70.102486 
	C482.903259,69.007622 483.499237,68.013062 482.926300,57.244900 
	C482.910370,56.945236 482.727844,56.654438 482.481110,55.960438 
	C474.774994,59.762569 466.934845,63.251453 458.711945,55.544281 
M29.308376,28.755119 
	C22.398880,28.755119 15.489385,28.755119 8.503445,28.755119 
	C8.503445,42.842796 8.503445,56.225346 8.503445,69.662804 
	C12.969514,69.662804 17.166914,69.662804 21.844975,69.662804 
	C21.844975,64.607933 21.844975,59.889011 21.844975,55.234505 
	C39.419830,54.108215 44.182114,51.257946 44.264229,42.078846 
	C44.337265,33.914383 39.622143,29.462662 29.308376,28.755119 
M430.826721,39.362202 
	C434.745087,39.362202 438.663422,39.362202 442.667053,39.362202 
	C442.667053,35.509487 442.667053,32.423759 442.667053,29.049950 
	C428.435059,29.049950 414.410156,29.049950 400.227631,29.049950 
	C400.227631,32.480019 400.227631,35.722900 400.227631,39.513931 
	C405.174774,39.513931 409.904755,39.513931 415.042542,39.513931 
	C415.042542,49.957645 415.042542,59.857826 415.042542,69.707123 
	C419.539185,69.707123 423.604187,69.707123 427.941254,69.707123 
	C427.941254,60.794842 427.854065,52.171261 428.028687,43.552990 
	C428.057190,42.146286 429.241699,40.763004 430.826721,39.362202 
M71.621460,41.811573 
	C66.466110,37.966549 60.650841,38.404915 54.938679,39.673058 
	C46.483765,41.550114 45.696754,43.032024 47.384850,51.461464 
	C56.842049,45.400246 60.825459,45.037067 62.927670,50.378395 
	C60.927010,51.060291 58.917732,51.690300 56.949932,52.430550 
	C54.789425,53.243298 52.615261,54.050003 50.539280,55.050690 
	C46.545387,56.975853 45.345341,60.327194 45.952499,64.544991 
	C46.574200,68.863823 49.773548,70.283966 53.380562,70.550377 
	C55.927139,70.738464 58.540047,69.788681 61.142067,69.559608 
	C62.601967,69.431084 64.108101,69.891273 65.579216,69.814430 
	C69.597733,69.604546 73.702248,69.632050 77.557434,68.687195 
	C78.530785,68.448647 78.697983,64.920815 79.352592,62.465912 
	C77.297485,62.629093 76.241318,62.712959 74.787170,62.828423 
	C74.787170,59.434235 75.120163,56.240574 74.700676,53.149010 
	C74.205353,49.498566 73.059532,45.936386 71.621460,41.811573 
M169.628464,70.113815 
	C178.332687,68.749359 178.586594,68.438408 177.647583,60.292938 
	C163.319443,64.104233 161.685898,63.921421 159.028275,57.834667 
	C165.621826,57.834667 172.053162,57.834667 178.410233,57.834667 
	C180.477951,43.898518 169.929581,35.518833 156.513962,39.999977 
	C149.731415,42.265518 145.802170,47.995823 146.080261,55.216248 
	C146.361282,62.513435 150.667542,68.431465 157.432861,69.788071 
	C161.106857,70.524796 165.001297,70.162193 169.628464,70.113815 
M300.915894,69.971558 
	C300.915894,56.375477 300.915894,42.779396 300.915894,29.000380 
	C296.500916,29.000380 292.444580,29.000380 288.000519,29.000380 
	C288.000519,39.845886 288.000763,50.454391 288.000427,61.062901 
	C288.000153,70.132378 287.999847,70.132378 280.098450,72.990196 
	C280.828522,76.289932 281.560547,79.598648 282.257446,82.748619 
	C295.058533,83.571548 298.213623,81.482262 300.915894,69.971558 
M186.667725,39.279995 
	C185.454865,40.159363 183.213608,41.009850 183.187973,41.922546 
	C182.927811,51.187981 183.029114,60.463566 183.029114,69.722977 
	C187.161270,69.722977 190.735138,69.722977 194.700394,69.722977 
	C194.700394,66.802528 194.696655,64.166946 194.701065,61.531384 
	C194.717422,51.778931 197.439987,49.524651 206.536041,52.009045 
	C207.409637,49.568634 208.002213,46.947014 209.241241,44.678474 
	C211.097153,41.280518 209.114578,39.418537 206.547318,39.481312 
	C202.623825,39.577251 198.730988,40.926773 194.921021,41.724045 
	C194.756424,37.126659 190.324356,39.920536 186.667725,39.279995 
M93.181488,59.090557 
	C94.958801,50.771988 97.301659,49.342773 105.172699,52.107956 
	C106.481201,48.631371 107.793266,45.145313 109.080917,41.724133 
	C103.210136,37.507805 100.456825,37.840427 93.487106,43.574913 
	C93.235237,42.137840 93.002739,40.811302 92.790756,39.601841 
	C89.109192,39.601841 85.694824,39.601841 82.186523,39.601841 
	C82.186523,49.809311 82.186523,59.704739 82.186523,69.703827 
	C85.921822,69.703827 89.456032,69.703827 93.180534,69.703827 
	C93.180534,66.260857 93.180534,63.119648 93.181488,59.090557 
M122.840706,39.527313 
	C122.840706,36.078640 122.840706,32.629967 122.840706,28.978539 
	C118.713821,28.978539 115.130074,28.978539 111.399971,28.978539 
	C111.399971,42.755646 111.399971,56.290356 111.399971,69.713181 
	C115.328201,69.713181 118.918579,69.713181 122.840698,69.713181 
	C122.840698,59.784180 122.840698,50.152683 122.840706,39.527313 
M141.018082,41.836304 
	C140.309082,40.992561 139.665344,39.500099 138.879410,39.421024 
	C135.979492,39.129257 133.032547,39.305073 130.103424,39.305073 
	C130.103424,49.879169 130.103424,59.787849 130.103424,69.804306 
	C133.792847,69.804306 137.208313,69.804306 141.019073,69.804306 
	C141.019073,60.667622 141.019073,51.723866 141.018082,41.836304 
M139.914200,30.993504 
	C138.026505,30.044151 136.202103,28.614067 134.223694,28.353497 
	C133.271408,28.228073 131.287949,30.193047 131.097626,31.417549 
	C130.837097,33.093636 131.337723,35.450790 132.454056,36.605038 
	C133.394379,37.577297 136.375015,38.049129 137.214203,37.319080 
	C138.661377,36.060116 139.146912,33.695763 139.914200,30.993504 
z"/>
<path fill="#FAFAFA" opacity="1.000000" stroke="none" 
	d="
M277.311462,47.000542 
	C277.311493,54.807213 277.311493,62.114075 277.311493,69.525398 
	C270.307709,70.834755 264.423187,70.581276 259.738892,64.035629 
	C255.952271,58.744377 250.905014,54.355305 245.519653,48.608479 
	C245.519653,56.469330 245.519653,63.010845 245.519653,69.773697 
	C240.940491,69.773697 236.867172,69.773697 232.520874,69.773697 
	C232.520874,56.233467 232.520874,42.838177 232.520874,29.133808 
	C239.080902,28.289396 244.969894,27.836283 249.635757,34.337063 
	C253.482925,39.697208 258.589386,44.153526 263.764221,49.679295 
	C263.764221,42.532619 263.764221,36.068470 263.764221,29.181835 
	C268.488861,29.181835 272.665497,29.181835 277.311462,29.181835 
	C277.311462,34.946560 277.311462,40.723644 277.311462,47.000542 
z"/>
<path fill="#FAFAFA" opacity="1.000000" stroke="none" 
	d="
M361.576630,66.575729 
	C353.497986,60.832527 351.577179,52.850327 353.386139,44.263916 
	C355.273865,35.303371 361.561096,30.239027 370.708405,28.691523 
	C383.063293,26.601372 393.351440,30.738485 397.660583,39.769600 
	C404.179993,53.432999 395.981842,68.152946 380.987854,70.148964 
	C374.158051,71.058159 367.825134,70.305275 361.576630,66.575729 
M366.943634,45.714478 
	C366.793457,46.360825 366.607605,47.001225 366.498627,47.654449 
	C365.486603,53.720848 369.260895,58.672680 375.170746,59.048637 
	C382.038025,59.485500 386.003418,55.855259 386.113953,49.331539 
	C386.191650,44.745018 384.056183,41.661327 379.985016,40.156731 
	C375.049438,38.332684 370.525513,40.221703 366.943634,45.714478 
z"/>
<path fill="#F8F8F8" opacity="1.000000" stroke="none" 
	d="
M319.788513,70.010361 
	C316.504456,70.010399 313.685120,70.010399 310.558350,70.010399 
	C310.558350,56.333168 310.558350,42.924110 310.558350,29.183714 
	C319.293671,29.183714 328.084320,28.617096 336.750793,29.409069 
	C341.491180,29.842262 344.977936,33.698563 345.975464,38.752502 
	C347.013000,44.009144 346.048370,48.696774 341.501312,51.230934 
	C344.662933,57.399574 347.697449,63.320290 351.125427,70.008682 
	C346.200989,70.008682 342.404510,70.182304 338.641968,69.901146 
	C337.536743,69.818558 336.142059,68.666214 335.547852,67.623566 
	C333.832245,64.613152 332.823425,61.144623 330.823578,58.370335 
	C329.411285,56.411140 326.836609,55.289848 323.667542,52.984634 
	C323.667542,58.792336 323.519623,62.776314 323.718750,66.742867 
	C323.854980,69.456879 322.783936,70.378357 319.788513,70.010361 
M332.991882,42.416374 
	C332.444489,36.372158 327.805054,37.945995 323.917786,37.255474 
	C323.917786,40.375965 323.917786,43.079330 323.917786,47.388905 
	C327.440704,45.756805 330.166565,44.493965 332.991882,42.416374 
z"/>
<path fill="#F9F9F9" opacity="1.000000" stroke="none" 
	d="
M458.944031,55.863091 
	C466.934845,63.251453 474.774994,59.762569 482.481110,55.960438 
	C482.727844,56.654438 482.910370,56.945236 482.926300,57.244900 
	C483.499237,68.013062 482.903259,69.007622 472.044800,70.102486 
	C467.343842,70.576500 462.319885,70.510689 457.778015,69.362923 
	C447.261414,66.705284 441.701599,57.272686 443.143433,45.965336 
	C444.449799,35.720295 452.770081,28.357841 464.431976,28.237808 
	C470.461151,28.175753 476.506683,29.699823 482.656616,30.522219 
	C482.656616,34.936440 482.656616,38.546658 482.656616,43.032745 
	C480.607574,42.032928 479.004333,40.761150 477.247131,40.491119 
	C473.084808,39.851490 468.617828,38.662212 464.692719,39.548836 
	C457.007904,41.284714 454.681610,48.490284 458.944031,55.863091 
z"/>
<path fill="#F7F7F7" opacity="1.000000" stroke="none" 
	d="
M29.774769,28.797134 
	C39.622143,29.462662 44.337265,33.914383 44.264229,42.078846 
	C44.182114,51.257946 39.419830,54.108215 21.844975,55.234505 
	C21.844975,59.889011 21.844975,64.607933 21.844975,69.662804 
	C17.166914,69.662804 12.969514,69.662804 8.503445,69.662804 
	C8.503445,56.225346 8.503445,42.842796 8.503445,28.755119 
	C15.489385,28.755119 22.398880,28.755119 29.774769,28.797134 
M30.923883,40.791603 
	C29.092182,36.543442 25.357903,37.849438 21.988594,37.296768 
	C21.988594,40.484856 21.988594,43.191685 21.988594,46.379578 
	C25.624842,45.306194 30.518162,47.940025 30.923883,40.791603 
z"/>
<path fill="#FDFDFD" opacity="1.000000" stroke="none" 
	d="
M430.359314,39.365547 
	C429.241699,40.763004 428.057190,42.146286 428.028687,43.552990 
	C427.854065,52.171261 427.941254,60.794842 427.941254,69.707123 
	C423.604187,69.707123 419.539185,69.707123 415.042542,69.707123 
	C415.042542,59.857826 415.042542,49.957645 415.042542,39.513931 
	C409.904755,39.513931 405.174774,39.513931 400.227631,39.513931 
	C400.227631,35.722900 400.227631,32.480019 400.227631,29.049950 
	C414.410156,29.049950 428.435059,29.049950 442.667053,29.049950 
	C442.667053,32.423759 442.667053,35.509487 442.667053,39.362202 
	C438.663422,39.362202 434.745087,39.362202 430.359314,39.365547 
z"/>
<path fill="#F8F8F8" opacity="1.000000" stroke="none" 
	d="
M71.908585,42.073757 
	C73.059532,45.936386 74.205353,49.498566 74.700676,53.149010 
	C75.120163,56.240574 74.787170,59.434235 74.787170,62.828423 
	C76.241318,62.712959 77.297485,62.629093 79.352592,62.465912 
	C78.697983,64.920815 78.530785,68.448647 77.557434,68.687195 
	C73.702248,69.632050 69.597733,69.604546 65.579216,69.814430 
	C64.108101,69.891273 62.601967,69.431084 61.142067,69.559608 
	C58.540047,69.788681 55.927139,70.738464 53.380562,70.550377 
	C49.773548,70.283966 46.574200,68.863823 45.952499,64.544991 
	C45.345341,60.327194 46.545387,56.975853 50.539280,55.050690 
	C52.615261,54.050003 54.789425,53.243298 56.949932,52.430550 
	C58.917732,51.690300 60.927010,51.060291 62.927670,50.378395 
	C60.825459,45.037067 56.842049,45.400246 47.384850,51.461464 
	C45.696754,43.032024 46.483765,41.550114 54.938679,39.673058 
	C60.650841,38.404915 66.466110,37.966549 71.908585,42.073757 
M61.929729,56.886875 
	C60.788021,57.511482 59.339680,57.890495 58.588730,58.828079 
	C57.798958,59.814137 57.456738,61.324051 57.394035,62.627907 
	C57.374821,63.027473 59.240654,64.080879 59.689754,63.832809 
	C60.971115,63.125019 62.347797,62.085075 62.956280,60.823402 
	C63.443672,59.812817 62.862007,58.286644 61.929729,56.886875 
z"/>
<path fill="#F8F8F8" opacity="1.000000" stroke="none" 
	d="
M169.212372,70.204636 
	C165.001297,70.162193 161.106857,70.524796 157.432861,69.788071 
	C150.667542,68.431465 146.361282,62.513435 146.080261,55.216248 
	C145.802170,47.995823 149.731415,42.265518 156.513962,39.999977 
	C169.929581,35.518833 180.477951,43.898518 178.410233,57.834667 
	C172.053162,57.834667 165.621826,57.834667 159.028275,57.834667 
	C161.685898,63.921421 163.319443,64.104233 177.647583,60.292938 
	C178.586594,68.438408 178.332687,68.749359 169.212372,70.204636 
M162.623886,46.351353 
	C160.870605,47.717312 159.117340,49.083267 157.364075,50.449226 
	C157.681717,50.813133 157.999359,51.177044 158.317017,51.540955 
	C161.481171,51.540955 164.645325,51.540955 167.809479,51.540955 
	C168.053772,51.120815 168.298050,50.700680 168.542343,50.280540 
	C166.818100,48.969982 165.093842,47.659424 162.623886,46.351353 
z"/>
<path fill="#FDFDFD" opacity="1.000000" stroke="none" 
	d="
M300.874695,70.412155 
	C298.213623,81.482262 295.058533,83.571548 282.257446,82.748619 
	C281.560547,79.598648 280.828522,76.289932 280.098450,72.990196 
	C287.999847,70.132378 288.000153,70.132378 288.000427,61.062901 
	C288.000763,50.454391 288.000519,39.845886 288.000519,29.000380 
	C292.444580,29.000380 296.500916,29.000380 300.915894,29.000380 
	C300.915894,42.779396 300.915894,56.375477 300.874695,70.412155 
z"/>
<path fill="#F7F7F7" opacity="1.000000" stroke="none" 
	d="
M187.113464,39.279884 
	C190.324356,39.920536 194.756424,37.126659 194.921021,41.724045 
	C198.730988,40.926773 202.623825,39.577251 206.547318,39.481312 
	C209.114578,39.418537 211.097153,41.280518 209.241241,44.678474 
	C208.002213,46.947014 207.409637,49.568634 206.536041,52.009045 
	C197.439987,49.524651 194.717422,51.778931 194.701065,61.531384 
	C194.696655,64.166946 194.700394,66.802528 194.700394,69.722977 
	C190.735138,69.722977 187.161270,69.722977 183.029114,69.722977 
	C183.029114,60.463566 182.927811,51.187981 183.187973,41.922546 
	C183.213608,41.009850 185.454865,40.159363 187.113464,39.279884 
z"/>
<path fill="#FAFAFA" opacity="1.000000" stroke="none" 
	d="
M93.181015,59.534500 
	C93.180534,63.119648 93.180534,66.260857 93.180534,69.703827 
	C89.456032,69.703827 85.921822,69.703827 82.186523,69.703827 
	C82.186523,59.704739 82.186523,49.809311 82.186523,39.601841 
	C85.694824,39.601841 89.109192,39.601841 92.790756,39.601841 
	C93.002739,40.811302 93.235237,42.137840 93.487106,43.574913 
	C100.456825,37.840427 103.210136,37.507805 109.080917,41.724133 
	C107.793266,45.145313 106.481201,48.631371 105.172699,52.107956 
	C97.301659,49.342773 94.958801,50.771988 93.181015,59.534500 
z"/>
<path fill="#F6F6F6" opacity="1.000000" stroke="none" 
	d="
M122.840698,40.024250 
	C122.840698,50.152683 122.840698,59.784180 122.840698,69.713181 
	C118.918579,69.713181 115.328201,69.713181 111.399971,69.713181 
	C111.399971,56.290356 111.399971,42.755646 111.399971,28.978539 
	C115.130074,28.978539 118.713821,28.978539 122.840706,28.978539 
	C122.840706,32.629967 122.840706,36.078640 122.840698,40.024250 
z"/>
<path fill="#FCFCFC" opacity="1.000000" stroke="none" 
	d="
M141.018585,42.308208 
	C141.019073,51.723866 141.019073,60.667622 141.019073,69.804306 
	C137.208313,69.804306 133.792847,69.804306 130.103424,69.804306 
	C130.103424,59.787849 130.103424,49.879169 130.103424,39.305073 
	C133.032547,39.305073 135.979492,39.129257 138.879410,39.421024 
	C139.665344,39.500099 140.309082,40.992561 141.018585,42.308208 
z"/>
<path fill="#F5F5F5" opacity="1.000000" stroke="none" 
	d="
M139.975082,31.394375 
	C139.146912,33.695763 138.661377,36.060116 137.214203,37.319080 
	C136.375015,38.049129 133.394379,37.577297 132.454056,36.605038 
	C131.337723,35.450790 130.837097,33.093636 131.097626,31.417549 
	C131.287949,30.193047 133.271408,28.228073 134.223694,28.353497 
	C136.202103,28.614067 138.026505,30.044151 139.975082,31.394375 
z"/>
</svg>