<?xml version="1.0" encoding="utf-8"?>
<!-- Uploaded to: SVG Repo, www.svgrepo.com, Generator: SVG Repo Mixer Tools -->
<svg fill="#ffffff" height="800px" width="800px" version="1.1" id="Layer_1" xmlns="http://www.w3.org/2000/svg" xmlns:xlink="http://www.w3.org/1999/xlink" 
	 viewBox="0 0 128 128" xml:space="preserve">
<path d="M40.2,117.4l-1.6,7.1l-10.2,0l17.5-78.8l-10.1-0.1V16.9L65.3,3.7l29.5,13.2v28.7l-10.1,0.1l17.4,78.8l-10.2,0l-1.6-7.1
	L65.3,86.8L40.2,117.4z M44.3,98.8L59.7,80l-8.9-10.8L44.3,98.8z M77.3,58.6l-2.8-12.9H56.1l-2.8,12.9l12.1,14.8L77.3,58.6z
	 M79.7,69.2L70.8,80l15.4,18.8L79.7,69.2z M46.9,35.4h36.8V20.9H46.9V35.4z"/>
</svg>
