<?xml version="1.0" encoding="UTF-8" standalone="no"?>
<!-- Uploaded to: SVG Repo, www.svgrepo.com, Generator: SVG Repo Mixer Tools -->

<svg
   fill="#000000"
   height="475"
   width="800"
   version="1.1"
   id="Capa_1"
   viewBox="0 0 475.04 282.055"
   xml:space="preserve"
   sodipodi:docname="sailor.svg"
   inkscape:version="1.3.2 (091e20e, 2023-11-25)"
   xmlns:inkscape="http://www.inkscape.org/namespaces/inkscape"
   xmlns:sodipodi="http://sodipodi.sourceforge.net/DTD/sodipodi-0.dtd"
   xmlns="http://www.w3.org/2000/svg"
   xmlns:svg="http://www.w3.org/2000/svg"><defs
   id="defs1" /><sodipodi:namedview
   id="namedview1"
   pagecolor="#ffffff"
   bordercolor="#999999"
   borderopacity="1"
   inkscape:showpageshadow="2"
   inkscape:pageopacity="0"
   inkscape:pagecheckerboard="0"
   inkscape:deskcolor="#d1d1d1"
   inkscape:zoom="0.43394199"
   inkscape:cx="309.94927"
   inkscape:cy="394.06189"
   inkscape:window-width="1440"
   inkscape:window-height="775"
   inkscape:window-x="0"
   inkscape:window-y="25"
   inkscape:window-maximized="0"
   inkscape:current-layer="Capa_1" />
<path
   d="m 268.5696,203.828 -6.255,3.127 c -2.541,1.271 -4.146,3.868 -4.146,6.708 v 3.127 c 0,7.666 -4.43,12.909 -13.148,15.631 v -36.036 h 3.709 c 4.142,0 7.5,-3.358 7.5,-7.5 0,-4.142 -3.358,-7.5 -7.5,-7.5 h -3.709 v -7.632 c 5.226,-2.72 8.809,-8.178 8.809,-14.466 0,-8.993 -7.316,-16.309 -16.309,-16.309 -8.993,0 -16.309,7.316 -16.309,16.309 0,6.288 3.583,11.746 8.809,14.466 v 7.632 h -3.709 c -4.142,0 -7.5,3.358 -7.5,7.5 0,4.142 3.358,7.5 7.5,7.5 h 3.709 v 36.036 c -8.718,-2.723 -13.148,-7.965 -13.148,-15.631 v -3.127 c 0,-2.841 -1.605,-5.438 -4.146,-6.708 l -6.255,-3.127 c -3.704,-1.851 -8.21,-0.35 -10.063,3.354 -1.852,3.705 -0.35,8.21 3.354,10.063 l 2.142,1.07 c 0.604,14.228 9.718,24.627 25.313,28.927 l 4.727,5.254 c 0.061,0.068 0.13,0.128 0.193,0.193 0.055,0.057 0.11,0.112 0.167,0.167 0.124,0.121 0.251,0.237 0.383,0.348 0.054,0.046 0.109,0.089 0.165,0.133 0.139,0.111 0.28,0.219 0.427,0.319 0.054,0.037 0.11,0.071 0.165,0.107 0.153,0.099 0.307,0.196 0.467,0.283 0.052,0.029 0.106,0.054 0.159,0.081 0.168,0.087 0.338,0.172 0.512,0.247 0.039,0.017 0.08,0.03 0.119,0.046 0.887,0.36 1.841,0.56 2.82,0.56 0.98,0 1.936,-0.2 2.825,-0.562 0.037,-0.015 0.076,-0.027 0.112,-0.043 0.176,-0.075 0.348,-0.161 0.518,-0.249 0.051,-0.027 0.103,-0.051 0.154,-0.078 0.161,-0.088 0.316,-0.186 0.47,-0.286 0.054,-0.035 0.109,-0.068 0.161,-0.105 0.147,-0.101 0.289,-0.209 0.429,-0.321 0.055,-0.044 0.109,-0.086 0.163,-0.131 0.132,-0.112 0.26,-0.228 0.385,-0.35 0.056,-0.054 0.111,-0.109 0.165,-0.165 0.064,-0.066 0.133,-0.126 0.195,-0.195 l 4.724,-5.253 c 15.596,-4.299 24.71,-14.698 25.315,-28.927 l 2.142,-1.07 c 3.705,-1.853 5.207,-6.357 3.354,-10.063 -1.854,-3.704 -6.359,-5.206 -10.064,-3.354 z m -31.049,-45.849 c 0.722,0 1.309,0.587 1.309,1.309 0,0.722 -0.587,1.309 -1.309,1.309 -0.722,0 -1.309,-0.587 -1.309,-1.309 0,-0.721 0.587,-1.309 1.309,-1.309 z m 235.995,-33.238 c -1.418,-1.869 -3.629,-2.966 -5.975,-2.966 h -87.437 C 376.2056,53.97 319.8166,0 251.0516,0 h -27.062 C 155.2256,0 98.8366,53.97 94.9376,121.775 H 7.5005998 c -2.346,0 -4.557,1.098 -5.975,2.966 -1.41799996,1.868 -1.87999996,4.293 -1.24899996,6.552 L 36.5506,261.085 c 3.445,12.325 14.788,20.932 27.584,20.932 h 346.771 c 12.797,0 24.14,-8.608 27.584,-20.933 l 36.273,-129.791 c 0.633,-2.259 0.171,-4.683 -1.247,-6.552 z m -49.472,132.306 c -1.641,5.87 -7.043,9.97 -13.138,9.97 h -346.77 c -6.095,0 -11.498,-4.1 -13.138,-9.97 l -6.552,-23.444 h 125.423 c 4.142,0 7.5,-3.358 7.5,-7.5 0,-4.142 -3.358,-7.5 -7.5,-7.5 H 40.2526 l -11.525,-41.236 h 141.139 c 4.142,0 7.5,-3.358 7.5,-7.5 0,-4.142 -3.358,-7.5 -7.5,-7.5 h -145.33 l -7.152,-25.592 h 314.851 c 4.142,0 7.5,-3.358 7.5,-7.5 0,-4.142 -3.358,-7.5 -7.5,-7.5 H 109.9676 C 113.8436,62.247 163.4986,15 223.9896,15 h 27.062 c 63.012,0 114.275,51.264 114.275,114.275 v 0 0 c 0,4.142 3.358,7.5 7.5,7.5 h 84.831 z m -118.87,-96.45 h 121.775 c 4.142,0 7.5,3.358 7.5,7.5 0,4.142 -3.358,7.5 -7.5,7.5 h -121.775 c -4.142,0 -7.5,-3.358 -7.5,-7.5 0,-4.142 3.358,-7.5 7.5,-7.5 z m 115.745,63.391 c 0,4.142 -3.358,7.5 -7.5,7.5 h -108.245 c -4.142,0 -7.5,-3.358 -7.5,-7.5 0,-4.142 3.358,-7.5 7.5,-7.5 h 108.245 c 4.142,0 7.5,3.358 7.5,7.5 z"
   id="path1" />
</svg>
